<svg width="179" height="36" viewBox="0 0 179 36" fill="none" xmlns="http://www.w3.org/2000/svg">
<path d="M62.648 4.80001H64.448V30H62.648V25.824C61.172 28.596 58.4 30.396 54.908 30.396C49.76 30.396 45.584 26.328 45.584 21C45.584 15.672 49.76 11.604 54.908 11.604C58.4 11.604 61.172 13.404 62.648 16.176V4.80001ZM55.016 28.668C59.3 28.668 62.648 25.284 62.648 21C62.648 16.716 59.3 13.332 55.016 13.332C50.732 13.332 47.384 16.716 47.384 21C47.384 25.284 50.732 28.668 55.016 28.668Z" fill="#502BAA" fill-opacity="0.6"/>
<path d="M78.4051 11.604C83.8771 11.604 87.2971 16.14 87.2971 21.072C87.2971 21.36 87.2611 21.648 87.2611 21.936H70.9531C71.3851 26.004 74.4811 28.668 78.5851 28.668C81.5371 28.668 83.7691 27.3 84.8131 25.392L86.3971 26.328C84.9211 28.776 82.1131 30.396 78.5491 30.396C73.0051 30.396 69.0811 26.436 69.0811 21C69.0811 15.708 72.8971 11.604 78.4051 11.604ZM78.4051 13.332C74.3011 13.332 71.3131 16.176 70.9531 20.172H85.4251C85.0291 15.78 81.9331 13.332 78.4051 13.332Z" fill="#502BAA" fill-opacity="0.6"/>
<path d="M108.142 4.80001V10.344H101.662V30H95.9023V10.344H89.4223V4.80001H108.142Z" fill="black"/>
<path d="M121.576 30.504C114.34 30.504 108.472 24.816 108.472 17.4C108.472 9.984 114.34 4.29601 121.576 4.29601C128.812 4.29601 134.68 9.984 134.68 17.4C134.68 24.816 128.812 30.504 121.576 30.504ZM121.576 24.888C125.68 24.888 128.92 21.9 128.92 17.4C128.92 12.9 125.68 9.91201 121.576 9.91201C117.472 9.91201 114.232 12.9 114.232 17.4C114.232 21.9 117.472 24.888 121.576 24.888Z" fill="black"/>
<path d="M152.293 4.80001H158.053V30H153.733L144.013 16.32V30H138.253V4.80001H142.573L152.293 18.48V4.80001Z" fill="black"/>
<path d="M174.293 16.968C176.993 18.048 178.793 20.316 178.793 23.268C178.793 27.84 175.157 30.396 170.441 30.396C165.725 30.396 162.089 27.84 162.089 23.268C162.089 20.316 163.889 18.048 166.589 16.968C164.429 15.888 162.917 13.872 162.917 11.208C162.917 6.74401 166.481 4.40401 170.441 4.40401C174.401 4.40401 177.965 6.74401 177.965 11.208C177.965 13.872 176.453 15.888 174.293 16.968ZM164.825 11.208C164.825 14.304 167.273 16.14 170.441 16.14C173.609 16.14 176.057 14.304 176.057 11.208C176.057 7.96801 173.609 6.24001 170.441 6.24001C167.273 6.24001 164.825 7.96801 164.825 11.208ZM170.441 28.56C174.365 28.56 176.849 26.616 176.849 23.268C176.849 19.956 174.365 18.012 170.441 18.012C166.517 18.012 164.033 19.956 164.033 23.268C164.033 26.616 166.517 28.56 170.441 28.56Z" fill="#502BAA" fill-opacity="0.6"/>
<mask id="mask0_9039_3593" style="mask-type:alpha" maskUnits="userSpaceOnUse" x="0" y="0" width="36" height="36">
<path d="M32.2477 3.76143C28.8513 0.37814 23.9678 0 18 0C12.0247 0 7.13377 0.382499 3.7388 3.77493C0.34432 7.16596 0 12.049 0 18.0175C0 23.9869 0.34432 28.8715 3.7402 32.2637C7.13496 35.6566 12.0253 36 18 36C23.9747 36 28.8643 35.6566 32.259 32.2637C35.6547 28.8708 36 23.9869 36 18.0175C36 12.0413 35.651 7.15302 32.2477 3.76143Z" fill="#3D96FE"/>
</mask>
<g mask="url(#mask0_9039_3593)">
<rect width="36" height="36" fill="#501BAA"/>
<path fill-rule="evenodd" clip-rule="evenodd" d="M23.2936 9.30025C22.6689 10.2906 22.2008 10.5296 21.3319 10.3033C20.1094 9.98481 19.8402 10.6906 20.6667 12.0481C21.0622 12.6977 21.2319 12.6618 21.8629 11.7949C22.2671 11.2395 22.6051 11.0562 22.6134 11.3878C22.6221 11.7195 22.4061 12.1342 22.1335 12.3089C21.4684 12.7357 22.0116 13.5696 22.9542 13.5696C23.4935 13.5696 23.632 13.2435 23.4375 12.4304C23.0805 10.9397 24.5878 8.84354 25.8395 9.09013C27.5501 9.42684 27.2785 12.0815 25.0954 16.36C23.0493 20.3701 22.7323 22.0046 23.6544 23.7939C24.0675 24.5949 24.0392 24.9403 23.5325 25.2795C23 25.6359 22.9937 25.8025 23.4989 26.1418C23.8432 26.3727 24.0055 26.8856 23.8593 27.281C23.673 27.7843 23.9607 28 24.8179 28C25.4914 28 26.0424 27.8025 26.0424 27.561C26.0424 27.32 26.4939 27.2451 27.0454 27.3949C27.8544 27.6147 27.9407 27.5322 27.4911 26.9696C27.1844 26.5858 27.0752 26.0344 27.2483 25.7438C27.4214 25.4532 27.3302 25.2152 27.0464 25.2152C26.7626 25.2152 26.5232 24.5889 26.5154 23.8228C26.5027 22.6324 26.4281 22.559 26.0034 23.3165C25.269 24.6253 24.6985 24.3985 24.3288 22.6516C24.0694 21.4238 24.4171 20.2359 25.997 16.9554C28.8355 11.0603 28.6551 8 25.4684 8C24.5527 8 23.849 8.42076 23.2936 9.30025ZM11.9108 11.9251C9.55457 13.1539 8 15.7367 8 18.4218C8 21.1833 8.52372 22.5873 10.2041 24.3296C14.2115 28.4851 21.1105 26.5129 22.5953 20.7873C23.2639 18.2096 22.6158 16.1013 21.1548 16.1013C19.827 16.1013 17.7526 13.7408 17.7526 12.2299C17.7526 11.1651 17.5317 11.038 15.6802 11.039C14.5401 11.039 12.8441 11.438 11.9108 11.9251ZM18.4929 11.5296C17.9882 12.3777 19.6661 15.0597 20.9032 15.3823C23.0834 15.9504 23.1493 15.0805 21.0807 13.037C18.8235 10.8076 18.8971 10.8506 18.4929 11.5296Z" fill="white"/>
</g>
</svg>
