<svg width="36" height="36" viewBox="0 0 36 36" fill="none" xmlns="http://www.w3.org/2000/svg">
<mask id="mask0_9039_3593"  maskUnits="userSpaceOnUse" x="0" y="0" width="36" height="36">
<path d="M32.2477 3.76143C28.8513 0.37814 23.9678 0 18 0C12.0247 0 7.13377 0.382499 3.7388 3.77493C0.34432 7.16596 0 12.049 0 18.0175C0 23.9869 0.34432 28.8715 3.7402 32.2637C7.13496 35.6566 12.0253 36 18 36C23.9747 36 28.8643 35.6566 32.259 32.2637C35.6547 28.8708 36 23.9869 36 18.0175C36 12.0413 35.651 7.15302 32.2477 3.76143Z" fill="#208354"/>
</mask>
<g mask="url(#mask0_9039_3593)">
<rect width="36" height="36" fill="#208354"/>
<path fill-rule="evenodd" clip-rule="evenodd" d="M23.2936 9.30025C22.6689 10.2906 22.2008 10.5296 21.3319 10.3033C20.1094 9.98481 19.8402 10.6906 20.6667 12.0481C21.0622 12.6977 21.2319 12.6618 21.8629 11.7949C22.2671 11.2395 22.6051 11.0562 22.6134 11.3878C22.6221 11.7195 22.4061 12.1342 22.1335 12.3089C21.4684 12.7357 22.0116 13.5696 22.9542 13.5696C23.4935 13.5696 23.632 13.2435 23.4375 12.4304C23.0805 10.9397 24.5878 8.84354 25.8395 9.09013C27.5501 9.42684 27.2785 12.0815 25.0954 16.36C23.0493 20.3701 22.7323 22.0046 23.6544 23.7939C24.0675 24.5949 24.0392 24.9403 23.5325 25.2795C23 25.6359 22.9937 25.8025 23.4989 26.1418C23.8432 26.3727 24.0055 26.8856 23.8593 27.281C23.673 27.7843 23.9607 28 24.8179 28C25.4914 28 26.0424 27.8025 26.0424 27.561C26.0424 27.32 26.4939 27.2451 27.0454 27.3949C27.8544 27.6147 27.9407 27.5322 27.4911 26.9696C27.1844 26.5858 27.0752 26.0344 27.2483 25.7438C27.4214 25.4532 27.3302 25.2152 27.0464 25.2152C26.7626 25.2152 26.5232 24.5889 26.5154 23.8228C26.5027 22.6324 26.4281 22.559 26.0034 23.3165C25.269 24.6253 24.6985 24.3985 24.3288 22.6516C24.0694 21.4238 24.4171 20.2359 25.997 16.9554C28.8355 11.0603 28.6551 8 25.4684 8C24.5527 8 23.849 8.42076 23.2936 9.30025ZM11.9108 11.9251C9.55457 13.1539 8 15.7367 8 18.4218C8 21.1833 8.52372 22.5873 10.2041 24.3296C14.2115 28.4851 21.1105 26.5129 22.5953 20.7873C23.2639 18.2096 22.6158 16.1013 21.1548 16.1013C19.827 16.1013 17.7526 13.7408 17.7526 12.2299C17.7526 11.1651 17.5317 11.038 15.6802 11.039C14.5401 11.039 12.8441 11.438 11.9108 11.9251ZM18.4929 11.5296C17.9882 12.3777 19.6661 15.0597 20.9032 15.3823C23.0834 15.9504 23.1493 15.0805 21.0807 13.037C18.8235 10.8076 18.8971 10.8506 18.4929 11.5296Z" fill="white"/>
</g>
</svg>
